<?xml version="1.0" encoding="UTF-8"?>
<!--Generator: Apple Native CoreSVG 175-->
<!DOCTYPE svg
PUBLIC "-//W3C//DTD SVG 1.1//EN"
       "http://www.w3.org/Graphics/SVG/1.1/DTD/svg11.dtd">
<svg version="1.1" xmlns="http://www.w3.org/2000/svg" xmlns:xlink="http://www.w3.org/1999/xlink" width="3300" height="2200">
 <!--glyph: "", point size: 100.0, font version: "17.3d3e1", template writer version: "65.1"-->
 <style>.hierarchical-0:secondary {fill:#4D4D4D}
.hierarchical-1:primary {fill:#212121;-sfsymbols-clear-behind:true}

.SFSymbolsPreview212121 {fill:#212121;opacity:1.0}
.SFSymbolsPreview4D4D4D {fill:#4D4D4D;opacity:1.0}
</style>
 <g id="Notes">
  <rect height="2200" id="artboard" style="fill:white;opacity:1" width="3300" x="0" y="0"/>
  <line style="fill:none;stroke:black;opacity:1;stroke-width:0.5;" x1="263" x2="3036" y1="292" y2="292"/>
  <text style="stroke:none;fill:black;font-family:sans-serif;font-size:13;font-weight:bold;" transform="matrix(1 0 0 1 263 322)">Weight/Scale Variations</text>
  <text style="stroke:none;fill:black;font-family:sans-serif;font-size:13;text-anchor:middle;" transform="matrix(1 0 0 1 559.711 322)">Ultralight</text>
  <text style="stroke:none;fill:black;font-family:sans-serif;font-size:13;text-anchor:middle;" transform="matrix(1 0 0 1 856.422 322)">Thin</text>
  <text style="stroke:none;fill:black;font-family:sans-serif;font-size:13;text-anchor:middle;" transform="matrix(1 0 0 1 1153.13 322)">Light</text>
  <text style="stroke:none;fill:black;font-family:sans-serif;font-size:13;text-anchor:middle;" transform="matrix(1 0 0 1 1449.84 322)">Regular</text>
  <text style="stroke:none;fill:black;font-family:sans-serif;font-size:13;text-anchor:middle;" transform="matrix(1 0 0 1 1746.56 322)">Medium</text>
  <text style="stroke:none;fill:black;font-family:sans-serif;font-size:13;text-anchor:middle;" transform="matrix(1 0 0 1 2043.27 322)">Semibold</text>
  <text style="stroke:none;fill:black;font-family:sans-serif;font-size:13;text-anchor:middle;" transform="matrix(1 0 0 1 2339.98 322)">Bold</text>
  <text style="stroke:none;fill:black;font-family:sans-serif;font-size:13;text-anchor:middle;" transform="matrix(1 0 0 1 2636.69 322)">Heavy</text>
  <text style="stroke:none;fill:black;font-family:sans-serif;font-size:13;text-anchor:middle;" transform="matrix(1 0 0 1 2933.4 322)">Black</text>
  <line style="fill:none;stroke:black;opacity:1;stroke-width:0.5;" x1="263" x2="3036" y1="1903" y2="1903"/>
  <g transform="matrix(1 0 0 1 263 1933)">
   <path d="M9.24805 0.830078Q10.8691 0.830078 12.2949 0.214844Q13.7207-0.400391 14.8096-1.49414Q15.8984-2.58789 16.5186-4.01367Q17.1387-5.43945 17.1387-7.05078Q17.1387-8.66211 16.5186-10.0879Q15.8984-11.5137 14.8047-12.6074Q13.7109-13.7012 12.2852-14.3164Q10.8594-14.9316 9.23828-14.9316Q7.62695-14.9316 6.20117-14.3164Q4.77539-13.7012 3.69141-12.6074Q2.60742-11.5137 1.9873-10.0879Q1.36719-8.66211 1.36719-7.05078Q1.36719-5.43945 1.9873-4.01367Q2.60742-2.58789 3.69629-1.49414Q4.78516-0.400391 6.21094 0.214844Q7.63672 0.830078 9.24805 0.830078ZM9.24805-0.654297Q7.91992-0.654297 6.7627-1.14746Q5.60547-1.64062 4.73145-2.51953Q3.85742-3.39844 3.36426-4.56055Q2.87109-5.72266 2.87109-7.05078Q2.87109-8.37891 3.35938-9.54102Q3.84766-10.7031 4.72168-11.582Q5.5957-12.4609 6.75293-12.9541Q7.91016-13.4473 9.23828-13.4473Q10.5762-13.4473 11.7334-12.9541Q12.8906-12.4609 13.7695-11.582Q14.6484-10.7031 15.1465-9.54102Q15.6445-8.37891 15.6445-7.05078Q15.6445-5.72266 15.1514-4.56055Q14.6582-3.39844 13.7842-2.51953Q12.9102-1.64062 11.748-1.14746Q10.5859-0.654297 9.24805-0.654297ZM5.6543-7.05078Q5.6543-6.72852 5.85938-6.52832Q6.06445-6.32812 6.40625-6.32812L8.51562-6.32812L8.51562-4.20898Q8.51562-3.88672 8.71094-3.67676Q8.90625-3.4668 9.23828-3.4668Q9.56055-3.4668 9.77051-3.67676Q9.98047-3.88672 9.98047-4.20898L9.98047-6.32812L12.0898-6.32812Q12.4219-6.32812 12.627-6.52832Q12.832-6.72852 12.832-7.05078Q12.832-7.38281 12.627-7.58789Q12.4219-7.79297 12.0898-7.79297L9.98047-7.79297L9.98047-9.90234Q9.98047-10.2344 9.77051-10.4443Q9.56055-10.6543 9.23828-10.6543Q8.90625-10.6543 8.71094-10.4443Q8.51562-10.2344 8.51562-9.90234L8.51562-7.79297L6.40625-7.79297Q6.06445-7.79297 5.85938-7.58789Q5.6543-7.38281 5.6543-7.05078Z"/>
  </g>
  <g transform="matrix(1 0 0 1 281.867 1933)">
   <path d="M11.709 2.91016Q13.75 2.91016 15.5518 2.12891Q17.3535 1.34766 18.7305-0.0292969Q20.1074-1.40625 20.8887-3.20801Q21.6699-5.00977 21.6699-7.05078Q21.6699-9.0918 20.8887-10.8936Q20.1074-12.6953 18.7305-14.0723Q17.3535-15.4492 15.5469-16.2305Q13.7402-17.0117 11.6992-17.0117Q9.6582-17.0117 7.85645-16.2305Q6.05469-15.4492 4.68262-14.0723Q3.31055-12.6953 2.5293-10.8936Q1.74805-9.0918 1.74805-7.05078Q1.74805-5.00977 2.5293-3.20801Q3.31055-1.40625 4.6875-0.0292969Q6.06445 1.34766 7.86621 2.12891Q9.66797 2.91016 11.709 2.91016ZM11.709 1.25Q9.98047 1.25 8.47656 0.605469Q6.97266-0.0390625 5.83496-1.17676Q4.69727-2.31445 4.05762-3.81836Q3.41797-5.32227 3.41797-7.05078Q3.41797-8.7793 4.05762-10.2832Q4.69727-11.7871 5.83008-12.9297Q6.96289-14.0723 8.4668-14.7119Q9.9707-15.3516 11.6992-15.3516Q13.4277-15.3516 14.9316-14.7119Q16.4355-14.0723 17.5781-12.9297Q18.7207-11.7871 19.3652-10.2832Q20.0098-8.7793 20.0098-7.05078Q20.0098-5.32227 19.3701-3.81836Q18.7305-2.31445 17.5928-1.17676Q16.4551-0.0390625 14.9463 0.605469Q13.4375 1.25 11.709 1.25ZM7.17773-7.05078Q7.17773-6.69922 7.41211-6.47461Q7.64648-6.25 8.01758-6.25L10.8887-6.25L10.8887-3.36914Q10.8887-2.99805 11.1133-2.76855Q11.3379-2.53906 11.6895-2.53906Q12.0605-2.53906 12.29-2.76855Q12.5195-2.99805 12.5195-3.36914L12.5195-6.25L15.4004-6.25Q15.7715-6.25 16.001-6.47461Q16.2305-6.69922 16.2305-7.05078Q16.2305-7.42188 16.001-7.65137Q15.7715-7.88086 15.4004-7.88086L12.5195-7.88086L12.5195-10.752Q12.5195-11.1328 12.29-11.3623Q12.0605-11.5918 11.6895-11.5918Q11.3379-11.5918 11.1133-11.3574Q10.8887-11.123 10.8887-10.752L10.8887-7.88086L8.01758-7.88086Q7.63672-7.88086 7.40723-7.65137Q7.17773-7.42188 7.17773-7.05078Z"/>
  </g>
  <g transform="matrix(1 0 0 1 305.646 1933)">
   <path d="M14.9707 5.66406Q17.0605 5.66406 18.96 5.01465Q20.8594 4.36523 22.4512 3.19336Q24.043 2.02148 25.2197 0.429688Q26.3965-1.16211 27.0459-3.06641Q27.6953-4.9707 27.6953-7.05078Q27.6953-9.14062 27.0459-11.04Q26.3965-12.9395 25.2197-14.5312Q24.043-16.123 22.4512-17.2998Q20.8594-18.4766 18.9551-19.126Q17.0508-19.7754 14.9609-19.7754Q12.8711-19.7754 10.9717-19.126Q9.07227-18.4766 7.48535-17.2998Q5.89844-16.123 4.72168-14.5312Q3.54492-12.9395 2.90039-11.04Q2.25586-9.14062 2.25586-7.05078Q2.25586-4.9707 2.90527-3.06641Q3.55469-1.16211 4.72656 0.429688Q5.89844 2.02148 7.49023 3.19336Q9.08203 4.36523 10.9814 5.01465Q12.8809 5.66406 14.9707 5.66406ZM14.9707 3.84766Q13.1641 3.84766 11.5283 3.2959Q9.89258 2.74414 8.53516 1.74805Q7.17773 0.751953 6.17676-0.610352Q5.17578-1.97266 4.62891-3.6084Q4.08203-5.24414 4.08203-7.05078Q4.08203-8.86719 4.62891-10.5029Q5.17578-12.1387 6.17188-13.501Q7.16797-14.8633 8.52539-15.8594Q9.88281-16.8555 11.5186-17.4023Q13.1543-17.9492 14.9609-17.9492Q16.7773-17.9492 18.4131-17.4023Q20.0488-16.8555 21.4111-15.8594Q22.7734-14.8633 23.7695-13.501Q24.7656-12.1387 25.3174-10.5029Q25.8691-8.86719 25.8691-7.05078Q25.8789-5.24414 25.332-3.6084Q24.7852-1.97266 23.7842-0.610352Q22.7832 0.751953 21.4209 1.74805Q20.0586 2.74414 18.4229 3.2959Q16.7871 3.84766 14.9707 3.84766ZM9.19922-7.05078Q9.19922-6.66992 9.45801-6.4209Q9.7168-6.17188 10.1172-6.17188L14.0625-6.17188L14.0625-2.2168Q14.0625-1.81641 14.3115-1.55762Q14.5605-1.29883 14.9512-1.29883Q15.3516-1.29883 15.6104-1.55273Q15.8691-1.80664 15.8691-2.2168L15.8691-6.17188L19.8242-6.17188Q20.2246-6.17188 20.4785-6.4209Q20.7324-6.66992 20.7324-7.05078Q20.7324-7.46094 20.4785-7.71484Q20.2246-7.96875 19.8242-7.96875L15.8691-7.96875L15.8691-11.9141Q15.8691-12.3242 15.6104-12.583Q15.3516-12.8418 14.9512-12.8418Q14.5605-12.8418 14.3115-12.583Q14.0625-12.3242 14.0625-11.9141L14.0625-7.96875L10.1172-7.96875Q9.70703-7.96875 9.45312-7.71484Q9.19922-7.46094 9.19922-7.05078Z"/>
  </g>
  <text style="stroke:none;fill:black;font-family:sans-serif;font-size:13;font-weight:bold;" transform="matrix(1 0 0 1 263 1953)">Design Variations</text>
  <text style="stroke:none;fill:black;font-family:sans-serif;font-size:13;" transform="matrix(1 0 0 1 263 1971)">Symbols are supported in up to nine weights and three scales.</text>
  <text style="stroke:none;fill:black;font-family:sans-serif;font-size:13;" transform="matrix(1 0 0 1 263 1989)">For optimal layout with text and other symbols, vertically align</text>
  <text style="stroke:none;fill:black;font-family:sans-serif;font-size:13;" transform="matrix(1 0 0 1 263 2007)">symbols with the adjacent text.</text>
  <line style="fill:none;stroke:#00AEEF;stroke-width:0.5;opacity:1.0;" x1="776" x2="776" y1="1919" y2="1933"/>
  <g transform="matrix(1 0 0 1 776 1933)">
   <path d="M3.31055 0.15625Q3.70117 0.15625 3.91602-0.00976562Q4.13086-0.175781 4.26758-0.585938L5.52734-4.0332L11.2891-4.0332L12.5488-0.585938Q12.6855-0.175781 12.9004-0.00976562Q13.1152 0.15625 13.4961 0.15625Q13.8867 0.15625 14.1162-0.0585938Q14.3457-0.273438 14.3457-0.644531Q14.3457-0.869141 14.2383-1.17188L9.6582-13.3691Q9.48242-13.8184 9.17969-14.043Q8.87695-14.2676 8.4082-14.2676Q7.5-14.2676 7.17773-13.3789L2.59766-1.16211Q2.49023-0.859375 2.49023-0.634766Q2.49023-0.263672 2.70996-0.0537109Q2.92969 0.15625 3.31055 0.15625ZM6.00586-5.51758L8.37891-12.0898L8.42773-12.0898L10.8008-5.51758Z"/>
  </g>
  <line style="fill:none;stroke:#00AEEF;stroke-width:0.5;opacity:1.0;" x1="793.197" x2="793.197" y1="1919" y2="1933"/>
  <text style="stroke:none;fill:black;font-family:sans-serif;font-size:13;font-weight:bold;" transform="matrix(1 0 0 1 776 1953)">Margins</text>
  <text style="stroke:none;fill:black;font-family:sans-serif;font-size:13;" transform="matrix(1 0 0 1 776 1971)">Leading and trailing margins on the left and right side of each symbol</text>
  <text style="stroke:none;fill:black;font-family:sans-serif;font-size:13;" transform="matrix(1 0 0 1 776 1989)">can be adjusted by modifying the x-location of the margin guidelines.</text>
  <text style="stroke:none;fill:black;font-family:sans-serif;font-size:13;" transform="matrix(1 0 0 1 776 2007)">Modifications are automatically applied proportionally to all</text>
  <text style="stroke:none;fill:black;font-family:sans-serif;font-size:13;" transform="matrix(1 0 0 1 776 2025)">scales and weights.</text>
  <g transform="matrix(1 0 0 1 1289 1933)">
   <path d="M2.8418 1.86523L4.54102 3.57422Q5.18555 4.22852 5.90332 4.17969Q6.62109 4.13086 7.31445 3.35938L18.0078-8.42773L17.041-9.4043L6.42578 2.27539Q6.16211 2.57812 5.89355 2.61719Q5.625 2.65625 5.27344 2.30469L4.10156 1.14258Q3.75 0.791016 3.79395 0.522461Q3.83789 0.253906 4.14062-0.0195312L15.6152-10.8203L14.6387-11.7871L3.04688-0.898438Q2.30469-0.214844 2.25098 0.498047Q2.19727 1.21094 2.8418 1.86523ZM9.25781-16.3281Q8.94531-16.0254 8.90625-15.6348Q8.86719-15.2441 9.04297-14.9512Q9.21875-14.6777 9.55566-14.541Q9.89258-14.4043 10.3809-14.5215Q11.4746-14.7754 12.5977-14.7314Q13.7207-14.6875 14.7949-13.9844L14.209-12.5293Q13.9551-11.9043 14.0674-11.4404Q14.1797-10.9766 14.5801-10.5664L16.875-8.25195Q17.2363-7.88086 17.5781-7.82227Q17.9199-7.76367 18.3398-7.8418L19.4043-8.03711L20.0684-7.36328L20.0293-6.80664Q20-6.43555 20.1221-6.12305Q20.2441-5.81055 20.6055-5.44922L21.3672-4.70703Q21.7285-4.3457 22.1533-4.33105Q22.5781-4.31641 22.9297-4.66797L25.8398-7.58789Q26.1914-7.93945 26.1816-8.35449Q26.1719-8.76953 25.8105-9.13086L25.0391-9.89258Q24.6875-10.2539 24.3799-10.3857Q24.0723-10.5176 23.7109-10.4883L23.1348-10.4395L22.4902-11.0742L22.7344-12.1973Q22.832-12.6172 22.6953-12.9834Q22.5586-13.3496 22.1191-13.7891L19.9219-15.9766Q18.6719-17.2168 17.2607-17.8369Q15.8496-18.457 14.4189-18.4814Q12.9883-18.5059 11.665-17.959Q10.3418-17.4121 9.25781-16.3281ZM10.752-15.957Q11.6602-16.6211 12.7002-16.9043Q13.7402-17.1875 14.8047-17.085Q15.8691-16.9824 16.8701-16.5137Q17.8711-16.0449 18.7012-15.2051L21.1328-12.793Q21.3086-12.6172 21.3525-12.4512Q21.3965-12.2852 21.3379-12.0312L21.0156-10.5469L22.5195-9.0625L23.5059-9.12109Q23.6914-9.13086 23.7891-9.09668Q23.8867-9.0625 24.0332-8.91602L24.6094-8.33984L22.168-5.89844L21.5918-6.47461Q21.4453-6.62109 21.4062-6.71875Q21.3672-6.81641 21.377-7.01172L21.4453-7.98828L19.9512-9.47266L18.4277-9.21875Q18.1836-9.16992 18.042-9.2041Q17.9004-9.23828 17.7148-9.41406L15.7129-11.416Q15.5176-11.5918 15.4932-11.7529Q15.4688-11.9141 15.5859-12.1875L16.4648-14.2773Q15.293-15.3711 13.8281-15.791Q12.3633-16.2109 10.8398-15.7617Q10.7227-15.7324 10.6885-15.8057Q10.6543-15.8789 10.752-15.957Z"/>
  </g>
  <text style="stroke:none;fill:black;font-family:sans-serif;font-size:13;font-weight:bold;" transform="matrix(1 0 0 1 1289 1953)">Exporting</text>
  <text style="stroke:none;fill:black;font-family:sans-serif;font-size:13;" transform="matrix(1 0 0 1 1289 1971)">Symbols should be outlined when exporting to ensure the</text>
  <text style="stroke:none;fill:black;font-family:sans-serif;font-size:13;" transform="matrix(1 0 0 1 1289 1989)">design is preserved when submitting to Xcode.</text>
  <text id="template-version" style="stroke:none;fill:black;font-family:sans-serif;font-size:13;text-anchor:end;" transform="matrix(1 0 0 1 3036 1933)">Template v.3.0</text>
  <text style="stroke:none;fill:black;font-family:sans-serif;font-size:13;text-anchor:end;" transform="matrix(1 0 0 1 3036 1951)">Requires Xcode 13 or greater</text>
  <text id="descriptive-name" style="stroke:none;fill:black;font-family:sans-serif;font-size:13;text-anchor:end;" transform="matrix(1 0 0 1 3036 1969)">Generated from custom.wrench.and.screwdriver</text>
  <text style="stroke:none;fill:black;font-family:sans-serif;font-size:13;text-anchor:end;" transform="matrix(1 0 0 1 3036 1987)">Typeset at 100 points</text>
  <text style="stroke:none;fill:black;font-family:sans-serif;font-size:13;" transform="matrix(1 0 0 1 263 726)">Small</text>
  <text style="stroke:none;fill:black;font-family:sans-serif;font-size:13;" transform="matrix(1 0 0 1 263 1156)">Medium</text>
  <text style="stroke:none;fill:black;font-family:sans-serif;font-size:13;" transform="matrix(1 0 0 1 263 1586)">Large</text>
 </g>
 <g id="Guides">
  <g id="H-reference" style="fill:#27AAE1;stroke:none;" transform="matrix(1 0 0 1 339 696)">
   <path d="M0.993347 0L3.6377 0L29.3282-67.1326L30.0301-67.1326L30.0301-70.459L28.1227-70.459ZM11.6882-24.4797L46.9818-24.4797L46.2311-26.7288L12.4382-26.7288ZM55.1193 0L57.7637 0L30.6381-70.459L29.4327-70.459L29.4327-67.1326Z"/>
  </g>
  <line id="Baseline-S" style="fill:none;stroke:#27AAE1;opacity:1;stroke-width:0.5;" x1="263" x2="3036" y1="696" y2="696"/>
  <line id="Capline-S" style="fill:none;stroke:#27AAE1;opacity:1;stroke-width:0.5;" x1="263" x2="3036" y1="625.541" y2="625.541"/>
  <g id="H-reference" style="fill:#27AAE1;stroke:none;" transform="matrix(1 0 0 1 339 1126)">
   <path d="M0.993347 0L3.6377 0L29.3282-67.1326L30.0301-67.1326L30.0301-70.459L28.1227-70.459ZM11.6882-24.4797L46.9818-24.4797L46.2311-26.7288L12.4382-26.7288ZM55.1193 0L57.7637 0L30.6381-70.459L29.4327-70.459L29.4327-67.1326Z"/>
  </g>
  <line id="Baseline-M" style="fill:none;stroke:#27AAE1;opacity:1;stroke-width:0.5;" x1="263" x2="3036" y1="1126" y2="1126"/>
  <line id="Capline-M" style="fill:none;stroke:#27AAE1;opacity:1;stroke-width:0.5;" x1="263" x2="3036" y1="1055.54" y2="1055.54"/>
  <g id="H-reference" style="fill:#27AAE1;stroke:none;" transform="matrix(1 0 0 1 339 1556)">
   <path d="M0.993347 0L3.6377 0L29.3282-67.1326L30.0301-67.1326L30.0301-70.459L28.1227-70.459ZM11.6882-24.4797L46.9818-24.4797L46.2311-26.7288L12.4382-26.7288ZM55.1193 0L57.7637 0L30.6381-70.459L29.4327-70.459L29.4327-67.1326Z"/>
  </g>
  <line id="Baseline-L" style="fill:none;stroke:#27AAE1;opacity:1;stroke-width:0.5;" x1="263" x2="3036" y1="1556" y2="1556"/>
  <line id="Capline-L" style="fill:none;stroke:#27AAE1;opacity:1;stroke-width:0.5;" x1="263" x2="3036" y1="1485.54" y2="1485.54"/>
  <line id="left-margin-Ultralight-S" style="fill:none;stroke:#00AEEF;stroke-width:0.5;opacity:1.0;" x1="507.427" x2="507.427" y1="600.784" y2="720.121"/>
  <line id="right-margin-Ultralight-S" style="fill:none;stroke:#00AEEF;stroke-width:0.5;opacity:1.0;" x1="611.995" x2="611.995" y1="600.784" y2="720.121"/>
  <line id="left-margin-Regular-S" style="fill:none;stroke:#00AEEF;stroke-width:0.5;opacity:1.0;" x1="1394.26" x2="1394.26" y1="600.784" y2="720.121"/>
  <line id="right-margin-Regular-S" style="fill:none;stroke:#00AEEF;stroke-width:0.5;opacity:1.0;" x1="1505.42" x2="1505.42" y1="600.784" y2="720.121"/>
  <line id="left-margin-Black-S" style="fill:none;stroke:#00AEEF;stroke-width:0.5;opacity:1.0;" x1="2876.15" x2="2876.15" y1="600.784" y2="720.121"/>
  <line id="right-margin-Black-S" style="fill:none;stroke:#00AEEF;stroke-width:0.5;opacity:1.0;" x1="2990.65" x2="2990.65" y1="600.784" y2="720.121"/>
 </g>
 <g id="Symbols">
  <g id="Black-S" transform="matrix(1 0 0 1 2876.15 696)">
   <path class="hierarchical-0:secondary SFSymbolsPreview4D4D4D" d="M34.4257-26.7548L42.1894-33.7861L22.121-54.0009Q20.3632-55.7099 20.3632-57.0527Q20.3632-58.3955 21.8769-59.9091L29.2987-67.3798Q30.8124-68.9423 32.1796-68.9179Q33.5468-68.8935 35.2558-67.1845L55.7147-46.7256L61.9647-55.3193L43.0683-74.2158Q37.7948-79.4404 32.2528-79.538Q26.7108-79.6357 21.6327-74.5576L14.6991-67.5752Q9.57215-62.4482 9.6698-56.955Q9.76746-51.4619 15.0409-46.1884ZM89.8456 9.91508L99.2206 0.540057Q100.392-0.680651 100.417-2.29198Q100.441-3.9033 99.4647-5.41698L91.1151-18.0634Q89.3085-20.7978 86.037-21.3349L83.1073-21.8232L70.5097-34.372L63.4296-26.999L78.5663-11.9111L82.8632-11.2275L88.6737-3.3662L85.8417-0.534167L78.078-6.44237L77.3456-10.6904L62.2089-25.7783L55.1288-18.4541L67.4335-6.1494L67.9218-3.26854Q68.1659-1.75487 69.0204-0.387682Q69.8749 0.979507 71.1933 1.80959L83.9374 10.2569Q85.4022 11.1846 86.9892 11.1602Q88.5761 11.1358 89.8456 9.91508ZM37.3554-41.9892Q38.2343-41.0615 39.5526-41.0859Q40.871-41.1103 41.7987-41.9404Q42.7265-42.8193 42.7265-44.1377Q42.7265-45.456 41.8476-46.3838L29.5917-58.6884Q28.7128-59.6162 27.4433-59.5918Q26.1737-59.5673 25.2948-58.7373Q24.2694-57.8584 24.2694-56.5156Q24.2694-55.1728 25.1972-54.1963ZM42.8241-47.458Q43.703-46.5302 45.0458-46.5547Q46.3886-46.5791 47.2675-47.4091Q48.1952-48.288 48.2196-49.6308Q48.244-50.9736 47.3163-51.9013L35.0604-64.1572Q34.1815-65.0361 32.9364-65.0361Q31.6913-65.0361 30.7636-64.206Q29.7382-63.3271 29.7382-61.9843Q29.7382-60.6416 30.6659-59.665Z"/>
   <path class="hierarchical-1:primary SFSymbolsPreview212121" d="M19.2401 4.73927Q22.9511 8.45021 27.3944 9.54888Q31.8378 10.6475 36.1591 9.37798Q40.4804 8.10841 43.8495 4.73927Q45.7538 2.83498 47.6337 0.198255Q49.5136-2.43846 51.5888-5.6367Q53.664-8.83494 56.1298-12.497Q58.5956-16.1591 61.623-20.1386Q64.6503-24.1181 68.4101-28.3173Q72.1698-32.5166 76.955-36.7646L69.6308-44.04Q63.869-38.2783 59.6454-33.4443Q55.4218-28.6103 52.3944-24.582Q49.3671-20.5537 47.1942-17.2578Q45.0214-13.9619 43.3368-11.2519Q41.6522-8.54198 40.1142-6.36912Q38.5761-4.19627 36.8183-2.43846Q34.621-0.338854 31.8378-0.094714Q29.0546 0.149427 26.4179-2.43846Q23.7812-5.12401 24.0253-7.90721Q24.2694-10.6904 26.4179-12.8388Q28.1757-14.5966 30.3485-16.1347Q32.5214-17.6728 35.2069-19.3818Q37.8925-21.0908 41.1884-23.2636Q44.4843-25.4365 48.5126-28.4882Q52.5409-31.54 57.3749-35.7392Q62.2089-39.9384 67.9706-45.7002L60.6952-53.0244Q56.203-48.0439 51.9062-44.1621Q47.6093-40.2802 43.6298-37.2529Q39.6503-34.2256 36.0614-31.8574Q32.4726-29.4892 29.3476-27.4873Q26.2226-25.4853 23.6591-23.6543Q21.0956-21.8232 19.1913-19.9189Q15.7733-16.5498 14.5038-12.2285Q13.2343-7.90721 14.3573-3.46385Q15.4804 0.979507 19.2401 4.73927ZM31.4472-3.80565Q32.9608-3.80565 34.0351-4.87987Q35.1093-5.95409 35.1093-7.46776Q35.1093-8.98143 34.0351-10.0557Q32.9608-11.1298 31.4472-11.1298Q29.9335-11.1298 28.8593-10.0557Q27.7851-8.98143 27.7851-7.46776Q27.7851-5.95409 28.8593-4.87987Q29.9335-3.80565 31.4472-3.80565ZM64.9433-40.9638Q69.6796-36.2275 75.8319-34.5185Q81.9843-32.8095 88.0634-34.25Q94.1425-35.6904 98.7323-40.2314Q102.834-44.333 104.421-49.8017Q106.008-55.2705 104.933-61.0078Q103.859-66.7451 100.05-71.6279L92.7753-64.3525Q95.5097-60.2021 95.1435-55.417Q94.7772-50.6318 91.5546-47.4091Q88.9667-44.8213 85.4755-44.04Q81.9843-43.2588 78.4442-44.3086Q74.9042-45.3584 72.121-48.1416Q69.289-50.9248 68.288-54.4648Q67.287-58.0048 68.0683-61.4716Q68.8495-64.9384 71.4374-67.5263Q74.6601-70.7978 79.3964-71.164Q84.1327-71.5302 88.3319-68.7959L95.6073-76.0713Q90.7245-79.9287 84.9872-80.9785Q79.2499-82.0283 73.7812-80.4414Q68.3124-78.8545 64.2108-74.7529Q59.621-70.2119 58.205-64.1084Q56.789-58.0048 58.4735-51.8525Q60.1581-45.7002 64.9433-40.9638ZM77.4921-58.4931L82.619-53.4638Q84.8163-51.2666 87.4774-51.2177Q90.1386-51.1689 92.287-53.2685L101.515-62.4482L96.1933-67.7705L89.0644-60.6904Q88.1366-59.8115 87.2577-60.6416L84.6698-63.1318Q83.6933-64.0595 84.6698-65.0849L91.7499-72.2138L86.4765-77.4873L77.248-68.2588Q75.0507-66.1103 75.1239-63.4248Q75.1972-60.7392 77.4921-58.4931Z"/>
  </g>
  <g id="Regular-S" transform="matrix(1 0 0 1 1394.26 696)">
   <path class="hierarchical-0:secondary SFSymbolsPreview4D4D4D" d="M39.1608-26.8273L43.2623-30.8801L17.9206-56.4172Q15.8209-58.5168 15.7965-60.5431Q15.7721-62.5695 17.7741-64.5715L23.2428-70.089Q25.2448-72.091 27.2956-72.0422Q29.3463-71.9933 31.3971-69.9425L58.8873-42.4523L63.2819-46.3097L35.987-73.8Q31.6901-78.0968 27.3444-78.1457Q22.9987-78.1945 18.8483-74.0441L13.7702-68.966Q9.66855-64.8644 9.71737-60.5187Q9.7662-56.173 14.0143-51.925ZM90.9186 10.3309L98.194 3.05546Q98.8776 2.42069 98.8043 1.46854Q98.7311 0.516397 98.1452-0.411337L90.1862-12.3742Q88.819-14.4738 86.5729-14.7668L83.2526-15.2551L64.7956-33.7609L60.7916-29.1222L80.6647-9.24923L84.9127-8.51681L91.8463 0.711713L88.5748 4.03202L79.3952-2.9504L78.5651-7.14962L58.8873-26.8761L54.8346-22.2863L72.5592-4.61056L73.0475-1.29024Q73.194-0.216025 73.8776 0.736123Q74.5612 1.68827 75.4401 2.32304L87.5006 10.3309Q88.4772 11.0145 89.3805 10.9901Q90.2838 10.9657 90.9186 10.3309ZM36.3776-44.6496Q36.817-44.2101 37.4518-44.2101Q38.0866-44.2101 38.526-44.6496Q38.9655-45.089 38.9655-45.6994Q38.9655-46.3097 38.526-46.798L24.4147-60.8605Q24.0241-61.2511 23.3649-61.2756Q22.7057-61.3 22.2663-60.8605Q21.8268-60.3722 21.8268-59.7375Q21.8268-59.1027 22.2663-58.6633ZM41.0163-49.2883Q41.4557-48.8 42.1149-48.8488Q42.7741-48.8976 43.1647-49.2883Q43.653-49.7765 43.653-50.4113Q43.653-51.0461 43.2135-51.4855L29.151-65.4992Q28.6627-65.9875 28.0524-65.9631Q27.442-65.9386 27.0026-65.4992Q26.5631-65.0597 26.5875-64.4494Q26.612-63.839 27.0026-63.3996Z"/>
   <path class="hierarchical-1:primary SFSymbolsPreview212121" d="M16.0163 5.64335Q19.4342 9.06132 23.4381 10.2088Q27.442 11.3563 31.3971 10.2576Q35.3522 9.15897 38.6725 5.741Q40.8209 3.59257 42.359 1.24882Q43.8971-1.09493 45.4352-3.90255Q46.9733-6.71017 48.9752-10.1525Q50.9772-13.5949 54.0045-17.8918Q57.0319-22.1886 61.5729-27.5109Q66.1139-32.8332 72.7545-39.4738L68.9948-43.1847Q61.6706-35.8605 56.9098-30.3674Q52.1491-24.8742 49.195-20.797Q46.2409-16.7199 44.4098-13.6437Q42.5788-10.5675 41.236-8.10177Q39.8932-5.63595 38.3307-3.36544Q36.7682-1.09493 34.278 1.44413Q31.2018 4.5203 27.3688 4.54471Q23.5358 4.56913 20.3131 1.34647Q17.1393-1.87618 17.1393-5.70919Q17.1393-9.5422 20.2155-12.6183Q22.7545-15.1086 25.025-16.6711Q27.2956-18.2336 29.7614-19.5763Q32.2272-20.9191 35.3034-22.7258Q38.3795-24.5324 42.4567-27.4865Q46.5338-30.4406 52.027-35.2258Q57.5202-40.0109 64.8932-47.3351L61.1334-51.0461Q54.5416-44.4543 49.195-39.9133Q43.8483-35.3722 39.5514-32.3449Q35.2545-29.3175 31.8122-27.2912Q28.3698-25.2648 25.5866-23.7511Q22.8034-22.2375 20.4352-20.6994Q18.067-19.1613 15.9186-17.0617Q12.5495-13.6925 11.4508-9.7131Q10.3522-5.73361 11.4997-1.75411Q12.6471 2.22538 16.0163 5.64335ZM27.1979-0.606649Q29.1998-0.606649 30.6403-2.02267Q32.0807-3.43868 32.0807-5.44064Q32.0807-7.44259 30.6403-8.85861Q29.1998-10.2746 27.1979-10.2746Q25.1959-10.2746 23.7799-8.85861Q22.3639-7.44259 22.3639-5.44064Q22.3639-3.43868 23.7799-2.02267Q25.1959-0.606649 27.1979-0.606649ZM63.6237-42.0129Q68.1159-37.4718 73.9264-35.8849Q79.737-34.298 85.4987-35.6164Q91.2604-36.9347 95.5573-41.2804Q99.1217-44.7961 100.66-49.4592Q102.198-54.1222 101.637-59.1271Q101.075-64.132 98.3405-68.7218L94.1901-64.5226Q96.6315-59.5422 95.9235-54.2687Q95.2155-48.9953 91.5045-45.2843Q88.3307-42.0617 84.0582-41.1095Q79.7858-40.1574 75.4401-41.4025Q71.0944-42.6476 67.6764-46.0168Q64.2584-49.3859 63.0377-53.756Q61.817-58.1261 62.7936-62.3986Q63.7702-66.6711 66.9928-69.8449Q70.7038-73.507 76.0016-74.215Q81.2995-74.923 86.0846-72.4328L90.2838-76.632Q85.7916-79.3664 80.8112-79.9279Q75.8307-80.4894 71.1676-78.9513Q66.5045-77.4133 62.9889-73.8488Q58.6432-69.5519 57.3004-63.8146Q55.9577-58.0773 57.5446-52.2912Q59.1315-46.5051 63.6237-42.0129ZM75.1471-59.3468L81.1041-53.4875Q83.2526-51.2902 85.8649-51.2414Q88.4772-51.1925 90.528-53.1945L98.487-61.2511L94.7272-65.0109L87.6471-57.9797Q86.0846-56.4172 84.4733-57.9797L79.7858-62.7648Q78.1256-64.5226 79.5416-65.9386L86.7194-73.0675L82.8131-76.8761L74.903-68.9172Q72.7545-66.7687 72.8278-64.1808Q72.901-61.5929 75.1471-59.3468Z"/>
  </g>
  <g id="Ultralight-S" transform="matrix(1 0 0 1 507.427 696)">
   <path class="hierarchical-0:secondary SFSymbolsPreview4D4D4D" d="M37.2609-28.0712L38.7746-29.6269L13.6143-54.755Q11.5147-56.8997 11.649-59.6302Q11.7833-62.3608 14.1034-64.7259L19.1182-69.8803Q21.4833-72.2454 24.2379-72.3553Q26.9925-72.4651 29.1341-70.2786L55.6706-43.8778L57.2049-45.3739L30.7271-71.8197Q27.8378-74.709 24.2642-74.5308Q20.6906-74.3527 17.6755-71.3375L12.5974-66.2594Q9.49453-63.1565 9.36177-59.6058Q9.22902-56.0551 12.1144-53.2147ZM87.1571 8.17835L92.0262 3.26426Q92.5732 2.76606 92.5908 2.17707Q92.6083 1.58808 92.204 1.02427L83.7453-10.7571Q82.8778-11.9488 81.5396-12.2418L77.493-12.8208L58.4004-31.7806L56.9394-30.2754L76.7667-10.5389L81.3786-9.80642L90.3096 1.96497L85.8578 6.37553L74.1353-2.55926L73.3052-7.1224L53.5367-26.849L52.0718-25.301L71.0225-6.35412L71.6931-2.39828Q71.7938-1.68722 72.1368-1.12111Q72.4797-0.555013 73.132-0.0560509L84.8294 8.31492Q85.5328 8.81693 86.073 8.74712Q86.6132 8.67732 87.1571 8.17835ZM36.1127-41.3983Q36.4156-41.0946 36.8462-41.1175Q37.2769-41.1404 37.5798-41.4433Q37.8835-41.7469 37.8606-42.1299Q37.8377-42.5129 37.5348-42.8196L22.2882-58.0631Q22.0334-58.3172 21.6012-58.3416Q21.169-58.366 20.8661-58.0631Q20.6082-57.8022 20.5857-57.3715Q20.5632-56.9409 20.8661-56.638ZM41.0695-46.3543Q41.3724-46.0476 41.8046-46.0739Q42.2368-46.1003 42.4908-46.3543Q42.7975-46.661 42.7975-47.0688Q42.7975-47.4766 42.4947-47.7802L27.2511-63.02Q26.9444-63.3259 26.5385-63.3244Q26.1327-63.3228 25.8298-63.02Q25.5261-62.7163 25.528-62.3104Q25.5299-61.9045 25.8298-61.6009Z"/>
   <path class="hierarchical-1:primary SFSymbolsPreview212121" d="M13.799 4.39951Q16.763 7.31776 20.1993 8.28364Q23.6356 9.24952 27.0684 8.30996Q30.5013 7.3704 33.4126 4.45139Q35.4703 2.43952 36.7131 0.345637Q37.9559-1.74825 39.1309-4.2381Q40.3058-6.72796 42.0354-9.89797Q43.765-13.068 46.724-17.2741Q49.6831-21.4802 54.4965-27.0065Q59.3098-32.5329 66.7226-39.719L65.0967-41.386Q57.5459-33.7895 52.6036-28.0468Q47.6613-22.3042 44.6389-17.9997Q41.6165-13.6952 39.8537-10.5282Q38.091-7.3612 36.9752-5.00905Q35.8594-2.65691 34.7508-0.749563Q33.6423 1.15778 31.8333 2.97053Q28.1667 6.59144 23.6527 6.59297Q19.1388 6.59449 15.3714 2.87287Q11.6521-0.940298 11.6521-5.45461Q11.6521-9.96892 15.2737-13.6357Q17.0857-15.3988 18.9702-16.5074Q20.8546-17.6159 23.2297-18.7317Q25.6047-19.8475 28.7717-21.6088Q31.9386-23.37 36.2202-26.4149Q40.5019-29.4598 46.2674-34.3811Q52.0329-39.3025 59.6333-46.8533L57.9625-48.476Q50.7802-41.1122 45.2519-36.2984Q39.7237-31.4846 35.5176-28.5256Q31.3115-25.5665 28.1415-23.8125Q24.9715-22.0585 22.4835-20.8855Q19.9956-19.7125 17.8998-18.4696Q15.804-17.2268 13.7463-15.1722Q10.8769-12.257 9.91455-8.84511Q8.95208-5.43325 9.94045-1.97599Q10.9288 1.48127 13.799 4.39951ZM23.5272-0.942587Q25.2568-0.942587 26.4474-2.15414Q27.6379-3.36568 27.6379-5.14028Q27.6379-6.86986 26.4474-8.1043Q25.2568-9.33874 23.5272-9.33874Q21.7526-9.33874 20.5182-8.1043Q19.2838-6.86986 19.2838-5.14028Q19.2838-3.36568 20.5182-2.15414Q21.7526-0.942587 23.5272-0.942587ZM61.3156-43.166Q65.1715-39.3063 70.2328-38.0146Q75.2942-36.723 80.3521-37.9959Q85.41-39.2689 89.2072-43.1149Q92.2269-46.1308 93.6742-49.9539Q95.1215-53.7769 94.946-57.8282Q94.7705-61.8794 93.0348-65.5613L91.4273-63.905Q93.5056-59.1061 92.5706-53.8098Q91.6356-48.5134 87.7431-44.6209Q84.2511-41.1717 79.7746-40.0379Q75.298-38.9042 70.7932-40.0582Q66.2885-41.2121 62.8255-44.627Q59.4075-48.1327 58.2547-52.6161Q57.1019-57.0995 58.2375-61.599Q59.3732-66.0984 62.7774-69.5446Q66.7607-73.4341 72.0357-74.3691Q77.3106-75.304 82.1416-73.177L83.7521-74.8333Q80.1228-76.614 76.0735-76.7899Q72.0242-76.9657 68.1783-75.5184Q64.3323-74.0711 61.3164-71.0514Q57.4704-67.2085 56.1955-62.1525Q54.9207-57.0965 56.2123-52.0367Q57.504-46.9769 61.3156-43.166ZM73.1114-59.4105L77.6151-54.9587Q79.5369-52.9881 81.5587-53.03Q83.5805-53.072 85.5405-55.0289L93.7718-63.2672L92.2826-64.7564L84.113-56.5441Q81.5511-54.0287 79.1226-56.4533L74.7075-60.8753Q72.2752-63.3602 74.7815-65.8657L83.0037-74.0849L81.5038-75.5322L73.2755-67.3Q71.3094-65.379 71.2689-63.3587Q71.2285-61.3384 73.1114-59.4105Z"/>
  </g>
 </g>
</svg>
